<svg width="218" height="140" viewBox="0 0 218 140" fill="none" xmlns="http://www.w3.org/2000/svg">
<g clip-path="url(#clip0_2078_1662)">
<rect opacity="0.07" width="218" height="140" fill="var(--theme-primary)"/>
<g clip-path="url(#clip1_2078_1662)">
<g opacity="0.4" clip-path="url(#clip2_2078_1662)">
<path d="M11 86.9727V110.163L28.9048 117.877C29.2839 118.04 29.7151 118.041 30.0942 117.878L45.1032 111.411C46.862 110.653 48 108.931 48 107.027V83.8363L30.0952 76.1223C29.7161 75.959 29.2836 75.9593 28.9045 76.1227L13.8968 82.5882C12.138 83.346 11 85.0685 11 86.9727Z" fill="var(--theme-primary)"/>
</g>
<g clip-path="url(#clip3_2078_1662)">
<path fill-rule="evenodd" clip-rule="evenodd" d="M199.489 12C199.711 12 199.925 12.0602 200.107 12.1748C206.324 16.9646 211.254 22.4743 215.879 29.5117C216.04 29.8183 216.04 30.1833 215.878 30.4902C211.059 38.1741 205.512 43.3635 200.105 47.8262C199.923 47.9399 199.71 48 199.489 48C199.268 48 199.055 47.9399 198.873 47.8262C193.466 43.3632 187.941 38.1737 183.122 30.4902C182.96 30.1833 182.959 29.8184 183.121 29.5117C187.746 22.4745 192.654 16.9646 198.871 12.1748C199.053 12.0603 199.267 12 199.489 12ZM194.305 30.3652C196.298 35.1127 197.613 37.3241 200.884 42.0859C203.509 38.598 205.38 36.4237 205.806 32.2539L194.305 30.3652ZM186.805 30.6846L186.929 30.8818C189.319 34.723 192.066 37.5855 195.823 40.1455C195.891 40.1919 195.983 40.184 196.043 40.127L196.059 40.1104C196.119 40.0534 196.13 39.9634 196.087 39.8936C194.431 37.2214 193.109 34.4707 191.125 30.0654L191.075 29.9551L186.805 30.6846ZM202.846 18.2451C202.782 18.1902 202.687 18.1901 202.622 18.2441L202.609 18.2539C202.544 18.3079 202.527 18.4003 202.569 18.4736C204.358 21.6152 206.319 25.4211 207.712 29.3711L211.43 28.4062C210.334 26.6915 207.411 22.1324 202.846 18.2451ZM198.445 17.21C195.19 21.3221 194.096 23.8332 193.303 27.1826L204.525 29.0186C202.71 24.3898 201.496 21.8507 198.445 17.21Z" fill="var(--theme-primary)"/>
<path d="M65.1318 22.2803C66.0026 21.907 66.9964 21.9061 67.8672 22.2793L109 39.9111V58H101V45.1865L66.501 30.3974L33.8066 44.4121C32.669 44.8998 32.0003 45.9696 32 47.0801V94.8135L66.5 109.602L99.1934 95.5869C100.331 95.099 101 94.0286 101 92.918V82H109V92.918C109 97.2704 106.385 101.207 102.345 102.939L67.8652 117.721L67.7002 117.787C66.8707 118.093 65.9491 118.069 65.1328 117.719L24 100.088V47.0801C24.0003 42.8639 26.4538 39.0372 30.2803 37.2275L30.6553 37.0586L65.1318 22.2803Z" fill="var(--theme-primary)"/>
<path d="M200.101 91.3915C201.309 90.8705 202.69 90.8695 203.898 91.3905L218 101.778V140H143V126.008C143 119.933 146.63 114.437 152.238 112.019L200.101 91.3915Z" fill="var(--theme-primary)"/>
</g>
</g>
</g>
<defs>
<clipPath id="clip0_2078_1662">
<rect width="218" height="140" fill="white"/>
</clipPath>
<clipPath id="clip1_2078_1662">
<rect width="217" height="128" fill="white" transform="translate(11 12)"/>
</clipPath>
<clipPath id="clip2_2078_1662">
<rect width="37" height="42" fill="white" transform="translate(11 76)"/>
</clipPath>
<clipPath id="clip3_2078_1662">
<rect width="204" height="128" fill="white" transform="translate(24 12)"/>
</clipPath>
</defs>
</svg>
